<svg width="113" height="32" viewBox="0 0 113 32" fill="none" xmlns="http://www.w3.org/2000/svg">
<path d="M12.8319 9.7927H9.70186V12.9228H12.8319V9.7927Z" fill="#1D73A5"/>
<path d="M26.2647 5.66637L5.17578 5.64697V16.2011H5.18617C5.18617 22.0304 9.91178 26.7553 15.7403 26.7553C21.5689 26.7553 26.2945 22.1003 26.2945 16.2011C26.2945 16.0466 26.264 5.66637 26.264 5.66637H26.2647ZM14.5245 21.2135H11.0133V19.5217H14.5245V21.2135ZM14.5245 17.9137H9.19472V16.2219H14.5245V17.9137ZM14.5245 14.6139H8.01003V8.09949H14.5245V14.6139ZM21.2502 8.01497H23.0695V9.83427H21.2502V8.01497ZM23.154 17.7094C23.154 21.2274 20.2913 24.0901 16.7733 24.0901H15.9274V22.3982H16.7733C19.3588 22.3982 21.4615 20.2949 21.4615 17.71V16.8641H23.1533V17.71L23.154 17.7094ZM23.154 12.9221H21.3347V11.1028H23.154V12.9221Z" fill="#1D73A5"/>
<path d="M49.1913 24.1122H33.0898V8.01074H49.1913V24.1122ZM36.161 21.041H46.1201V11.0819H36.161V21.041Z" fill="#1D73A5"/>
<path d="M58.7543 8.01025H52.6562V11.0814H58.7543V8.01025Z" fill="#1D73A5"/>
<path d="M68.4951 8.01025H65.4239V11.3011H68.4951V8.01025Z" fill="#1D73A5"/>
<path d="M63.669 8.01025H60.5978V11.3011H63.669V8.01025Z" fill="#1D73A5"/>
<path d="M58.7543 12.7927H52.6562V15.8639H58.7543V12.7927Z" fill="#1D73A5"/>
<path d="M56.254 24.1089H54.7187V21.0377H56.254C58.7765 21.0377 61.132 20.2936 62.8869 18.942C64.5226 17.6818 65.4239 16.0433 65.4239 14.3286V12.7934H68.4951V14.3286C68.4951 15.7031 68.148 17.0312 67.4642 18.2769C66.8227 19.4456 65.913 20.4876 64.7609 21.3751C62.4719 23.1383 59.4506 24.1089 56.254 24.1089Z" fill="#1D73A5"/>
<path d="M107.564 10.9495H96.5143C96.5843 10.4424 96.6203 9.90129 96.6203 9.32627V7.79102H93.5491V9.32627C93.5491 10.4306 93.3745 11.3645 93.0565 11.9568C92.7849 12.4633 92.4676 12.6607 91.9259 12.6607H90.3906V15.7319H91.9259C93.353 15.7319 94.5551 15.1299 95.376 14.0207H100.162C100.154 15.9176 100.091 17.7951 99.5356 19.074C99.1137 20.0467 98.3246 21.0402 95.6656 21.0402H94.1304V24.1114H95.6656C99.0049 24.1114 101.255 22.8276 102.353 20.2961C103.145 18.4706 103.225 16.2356 103.233 14.0207H107.564V10.9495Z" fill="#1D73A5"/>
<path d="M75.4735 16.0327H72.4023V24.1115H75.4735V16.0327Z" fill="#1D73A5"/>
<path d="M86.442 16.0327H83.3708V24.1115H86.442V16.0327Z" fill="#1D73A5"/>
<path d="M88.767 10.0725C88.767 8.76588 87.7043 7.70312 86.3976 7.70312C85.091 7.70312 84.0283 8.76588 84.0283 10.0725C84.0283 10.3822 84.0885 10.6787 84.1973 10.9503H80.9792V8.01073H77.908V10.9503H72.41V14.0215H77.908V24.1121H80.9792V14.0215H86.417V12.4419C87.7147 12.4315 88.767 11.3729 88.767 10.0732V10.0725ZM86.3976 10.6427C86.0831 10.6427 85.8275 10.387 85.8275 10.0725C85.8275 9.75798 86.0831 9.50233 86.3976 9.50233C86.7122 9.50233 86.9678 9.75798 86.9678 10.0725C86.9678 10.387 86.7122 10.6427 86.3976 10.6427Z" fill="#1D73A5"/>
</svg>
