<svg width="22" height="22" viewBox="0 0 22 22" fill="none" xmlns="http://www.w3.org/2000/svg">
<path d="M7.83194 4.7927H4.70186V7.92278H7.83194V4.7927Z" fill="#1D73A5"/>
<path d="M21.2647 0.666371L0.175781 0.646973V11.2011H0.186173C0.186173 17.0304 4.91178 21.7553 10.7403 21.7553C16.5689 21.7553 21.2945 17.1003 21.2945 11.2011C21.2945 11.0466 21.264 0.666371 21.264 0.666371H21.2647ZM9.52445 16.2135H6.01333V14.5217H9.52445V16.2135ZM9.52445 12.9137H4.19472V11.2219H9.52445V12.9137ZM9.52445 9.61391H3.01003V3.09949H9.52445V9.61391ZM16.2502 3.01497H18.0695V4.83427H16.2502V3.01497ZM18.154 12.7094C18.154 16.2274 15.2913 19.0901 11.7733 19.0901H10.9274V17.3982H11.7733C14.3588 17.3982 16.4615 15.2949 16.4615 12.71V11.8641H18.1533V12.71L18.154 12.7094ZM18.154 7.92209H16.3347V6.10279H18.154V7.92209Z" fill="#1D73A5"/>
</svg>
